<mxfile host="app.diagrams.net" modified="2023-05-09T09:01:03.934Z" agent="Mozilla/5.0 (X11; Linux x86_64; rv:109.0) Gecko/20100101 Firefox/112.0" version="21.2.9" etag="QoWsJl_g8YVBjlDpG-Kh" type="github">
  <diagram name="Page-1" id="y1bJ36FCFIKRYS2kCzdK">
    <mxGraphModel>
      <root>
        <mxCell id="0" />
        <mxCell id="1" parent="0" />
      </root>
    </mxGraphModel>
  </diagram>
</mxfile>
